<mxfile host="app.diagrams.net" agent="Mozilla/5.0 (Windows NT 10.0; Win64; x64) AppleWebKit/537.36 (KHTML, like Gecko) Chrome/131.0.0.0 Safari/537.36" version="24.8.6">
  <diagram id="C5RBs43oDa-KdzZeNtuy" name="Page-1">
    <mxGraphModel dx="880" dy="508" grid="1" gridSize="10" guides="1" tooltips="1" connect="1" arrows="1" fold="1" page="1" pageScale="1" pageWidth="827" pageHeight="1169" math="0" shadow="0">
      <root>
        <mxCell id="WIyWlLk6GJQsqaUBKTNV-0" />
        <mxCell id="WIyWlLk6GJQsqaUBKTNV-1" parent="WIyWlLk6GJQsqaUBKTNV-0" />
        <mxCell id="mkrMZ5HVwzya5urM8sOc-26" value="" style="edgeStyle=orthogonalEdgeStyle;rounded=0;orthogonalLoop=1;jettySize=auto;html=1;" parent="WIyWlLk6GJQsqaUBKTNV-1" source="mkrMZ5HVwzya5urM8sOc-1" target="mkrMZ5HVwzya5urM8sOc-6" edge="1">
          <mxGeometry relative="1" as="geometry" />
        </mxCell>
        <mxCell id="mkrMZ5HVwzya5urM8sOc-1" value="num1,num2" style="rounded=0;whiteSpace=wrap;html=1;" parent="WIyWlLk6GJQsqaUBKTNV-1" vertex="1">
          <mxGeometry x="294" y="170" width="120" height="60" as="geometry" />
        </mxCell>
        <mxCell id="mkrMZ5HVwzya5urM8sOc-27" value="" style="edgeStyle=orthogonalEdgeStyle;rounded=0;orthogonalLoop=1;jettySize=auto;html=1;" parent="WIyWlLk6GJQsqaUBKTNV-1" source="mkrMZ5HVwzya5urM8sOc-6" target="mkrMZ5HVwzya5urM8sOc-9" edge="1">
          <mxGeometry relative="1" as="geometry" />
        </mxCell>
        <mxCell id="mkrMZ5HVwzya5urM8sOc-6" value="num1,num2" style="shape=parallelogram;perimeter=parallelogramPerimeter;whiteSpace=wrap;html=1;fixedSize=1;" parent="WIyWlLk6GJQsqaUBKTNV-1" vertex="1">
          <mxGeometry x="294" y="280" width="120" height="60" as="geometry" />
        </mxCell>
        <mxCell id="mkrMZ5HVwzya5urM8sOc-28" value="" style="edgeStyle=orthogonalEdgeStyle;rounded=0;orthogonalLoop=1;jettySize=auto;html=1;" parent="WIyWlLk6GJQsqaUBKTNV-1" source="mkrMZ5HVwzya5urM8sOc-9" target="mkrMZ5HVwzya5urM8sOc-14" edge="1">
          <mxGeometry relative="1" as="geometry" />
        </mxCell>
        <mxCell id="mkrMZ5HVwzya5urM8sOc-30" value="" style="edgeStyle=orthogonalEdgeStyle;rounded=0;orthogonalLoop=1;jettySize=auto;html=1;" parent="WIyWlLk6GJQsqaUBKTNV-1" source="mkrMZ5HVwzya5urM8sOc-9" target="mkrMZ5HVwzya5urM8sOc-18" edge="1">
          <mxGeometry relative="1" as="geometry" />
        </mxCell>
        <mxCell id="2fJYDP1MCFr8vHfVDKVd-1" value="" style="edgeStyle=orthogonalEdgeStyle;rounded=0;orthogonalLoop=1;jettySize=auto;html=1;" edge="1" parent="WIyWlLk6GJQsqaUBKTNV-1" source="mkrMZ5HVwzya5urM8sOc-9" target="2fJYDP1MCFr8vHfVDKVd-0">
          <mxGeometry relative="1" as="geometry" />
        </mxCell>
        <mxCell id="mkrMZ5HVwzya5urM8sOc-9" value="num1&amp;gt;num2" style="rhombus;whiteSpace=wrap;html=1;" parent="WIyWlLk6GJQsqaUBKTNV-1" vertex="1">
          <mxGeometry x="314" y="380" width="80" height="80" as="geometry" />
        </mxCell>
        <mxCell id="2fJYDP1MCFr8vHfVDKVd-12" style="edgeStyle=orthogonalEdgeStyle;rounded=0;orthogonalLoop=1;jettySize=auto;html=1;entryX=1;entryY=0.5;entryDx=0;entryDy=0;" edge="1" parent="WIyWlLk6GJQsqaUBKTNV-1" source="mkrMZ5HVwzya5urM8sOc-14" target="2fJYDP1MCFr8vHfVDKVd-5">
          <mxGeometry relative="1" as="geometry" />
        </mxCell>
        <mxCell id="mkrMZ5HVwzya5urM8sOc-14" value="num2" style="whiteSpace=wrap;html=1;aspect=fixed;" parent="WIyWlLk6GJQsqaUBKTNV-1" vertex="1">
          <mxGeometry x="470" y="505" width="80" height="80" as="geometry" />
        </mxCell>
        <mxCell id="2fJYDP1MCFr8vHfVDKVd-13" style="edgeStyle=orthogonalEdgeStyle;rounded=0;orthogonalLoop=1;jettySize=auto;html=1;entryX=0;entryY=0.5;entryDx=0;entryDy=0;" edge="1" parent="WIyWlLk6GJQsqaUBKTNV-1" source="mkrMZ5HVwzya5urM8sOc-18" target="2fJYDP1MCFr8vHfVDKVd-5">
          <mxGeometry relative="1" as="geometry" />
        </mxCell>
        <mxCell id="mkrMZ5HVwzya5urM8sOc-18" value="num1" style="whiteSpace=wrap;html=1;aspect=fixed;" parent="WIyWlLk6GJQsqaUBKTNV-1" vertex="1">
          <mxGeometry x="150" y="505" width="80" height="80" as="geometry" />
        </mxCell>
        <mxCell id="mkrMZ5HVwzya5urM8sOc-32" value="true" style="text;html=1;align=center;verticalAlign=middle;resizable=0;points=[];autosize=1;strokeColor=none;fillColor=none;" parent="WIyWlLk6GJQsqaUBKTNV-1" vertex="1">
          <mxGeometry x="410" y="388" width="40" height="30" as="geometry" />
        </mxCell>
        <mxCell id="mkrMZ5HVwzya5urM8sOc-33" value="false" style="text;html=1;align=center;verticalAlign=middle;resizable=0;points=[];autosize=1;strokeColor=none;fillColor=none;" parent="WIyWlLk6GJQsqaUBKTNV-1" vertex="1">
          <mxGeometry x="264" y="388" width="50" height="30" as="geometry" />
        </mxCell>
        <mxCell id="2fJYDP1MCFr8vHfVDKVd-6" value="" style="edgeStyle=orthogonalEdgeStyle;rounded=0;orthogonalLoop=1;jettySize=auto;html=1;" edge="1" parent="WIyWlLk6GJQsqaUBKTNV-1" source="2fJYDP1MCFr8vHfVDKVd-0" target="2fJYDP1MCFr8vHfVDKVd-5">
          <mxGeometry relative="1" as="geometry" />
        </mxCell>
        <mxCell id="2fJYDP1MCFr8vHfVDKVd-0" value="num1=num2" style="whiteSpace=wrap;html=1;aspect=fixed;" vertex="1" parent="WIyWlLk6GJQsqaUBKTNV-1">
          <mxGeometry x="314" y="505" width="80" height="80" as="geometry" />
        </mxCell>
        <mxCell id="2fJYDP1MCFr8vHfVDKVd-4" value="" style="edgeStyle=orthogonalEdgeStyle;rounded=0;orthogonalLoop=1;jettySize=auto;html=1;" edge="1" parent="WIyWlLk6GJQsqaUBKTNV-1" source="2fJYDP1MCFr8vHfVDKVd-3" target="mkrMZ5HVwzya5urM8sOc-1">
          <mxGeometry relative="1" as="geometry" />
        </mxCell>
        <mxCell id="2fJYDP1MCFr8vHfVDKVd-3" value="START" style="ellipse;whiteSpace=wrap;html=1;" vertex="1" parent="WIyWlLk6GJQsqaUBKTNV-1">
          <mxGeometry x="294" y="30" width="120" height="80" as="geometry" />
        </mxCell>
        <mxCell id="2fJYDP1MCFr8vHfVDKVd-5" value="END" style="ellipse;whiteSpace=wrap;html=1;" vertex="1" parent="WIyWlLk6GJQsqaUBKTNV-1">
          <mxGeometry x="294" y="660" width="120" height="80" as="geometry" />
        </mxCell>
        <mxCell id="2fJYDP1MCFr8vHfVDKVd-10" value="equal" style="text;html=1;align=center;verticalAlign=middle;resizable=0;points=[];autosize=1;strokeColor=none;fillColor=none;" vertex="1" parent="WIyWlLk6GJQsqaUBKTNV-1">
          <mxGeometry x="360" y="460" width="50" height="30" as="geometry" />
        </mxCell>
      </root>
    </mxGraphModel>
  </diagram>
</mxfile>
